<svg width="74" height="69" viewBox="0 0 74 69" fill="none" xmlns="http://www.w3.org/2000/svg">
<path d="M21.25 68.5C24.9779 68.5 28 65.4779 28 61.75C28 58.0221 24.9779 55 21.25 55C17.5221 55 14.5 58.0221 14.5 61.75C14.5 65.4779 17.5221 68.5 21.25 68.5Z" fill="#FEF1E1"/>
<path d="M61.75 68.5C65.4779 68.5 68.5 65.4779 68.5 61.75C68.5 58.0221 65.4779 55 61.75 55C58.0221 55 55 58.0221 55 61.75C55 65.4779 58.0221 68.5 61.75 68.5Z" fill="#FEF1E1"/>
<path d="M1 1H10L12.7 14.5M12.7 14.5L19 46H64L73 14.5H12.7Z" stroke="#FEF1E1" stroke-width="2" stroke-linecap="round" stroke-linejoin="round"/>
</svg>
