<svg width="42" height="42" viewBox="0 0 42 42" fill="none" xmlns="http://www.w3.org/2000/svg">
<circle cx="21" cy="21" r="21" fill="#FFF0E0"/>
<path d="M21 9C22.5913 9 24.1174 9.63214 25.2426 10.7574C26.3679 11.8826 27 13.4087 27 15C27 16.5913 26.3679 18.1174 25.2426 19.2426C24.1174 20.3679 22.5913 21 21 21C19.4087 21 17.8826 20.3679 16.7574 19.2426C15.6321 18.1174 15 16.5913 15 15C15 13.4087 15.6321 11.8826 16.7574 10.7574C17.8826 9.63214 19.4087 9 21 9ZM21 12C20.2044 12 19.4413 12.3161 18.8787 12.8787C18.3161 13.4413 18 14.2044 18 15C18 15.7956 18.3161 16.5587 18.8787 17.1213C19.4413 17.6839 20.2044 18 21 18C21.7956 18 22.5587 17.6839 23.1213 17.1213C23.6839 16.5587 24 15.7956 24 15C24 14.2044 23.6839 13.4413 23.1213 12.8787C22.5587 12.3161 21.7956 12 21 12ZM21 22.5C25.005 22.5 33 24.495 33 28.5V33H9V28.5C9 24.495 16.995 22.5 21 22.5ZM21 25.35C16.545 25.35 11.85 27.54 11.85 28.5V30.15H30.15V28.5C30.15 27.54 25.455 25.35 21 25.35Z" fill="black"/>
</svg>
